HIERARCHY
ROOT joint_Root
{
	OFFSET 0.0 0.0 0.0
	CHANNELS 6 Xposition Yposition Zposition Zrotation Xrotation Yrotation 
	JOINT Hips
	{
		OFFSET 4.5925 91.4895 -427.239
		CHANNELS 6 Xposition Yposition Zposition Zrotation Xrotation Yrotation 
		JOINT Spine
		{
			OFFSET 15.7357 0.0 0.0
			CHANNELS 6 Xposition Yposition Zposition Zrotation Xrotation Yrotation 
			JOINT Chest
			{
				OFFSET 8.98455 -0.406207 0.0
				CHANNELS 6 Xposition Yposition Zposition Zrotation Xrotation Yrotation 
				JOINT Neck
				{
					OFFSET 16.3773 0.0 0.0
					CHANNELS 6 Xposition Yposition Zposition Zrotation Xrotation Yrotation 
					JOINT Head
					{
						OFFSET 6.45672 0.0 0.0
						CHANNELS 6 Xposition Yposition Zposition Zrotation Xrotation Yrotation 
						End Site
						{
							OFFSET 0.0 0.0 0.0
						}
					}
				}
				JOINT Shoulder_L
				{
					OFFSET 12.9942 -0.242716 4.98039
					CHANNELS 6 Xposition Yposition Zposition Zrotation Xrotation Yrotation 
					JOINT UpperArm_L
					{
						OFFSET 5.34809 0.0 0.0
						CHANNELS 6 Xposition Yposition Zposition Zrotation Xrotation Yrotation 
						JOINT LowerArm_L
						{
							OFFSET 24.3286 1.87007e-05 0.0
							CHANNELS 6 Xposition Yposition Zposition Zrotation Xrotation Yrotation 
							JOINT Hand_L
							{
								OFFSET 22.2916 0.0 0.0
								CHANNELS 6 Xposition Yposition Zposition Zrotation Xrotation Yrotation 
								End Site
								{
									OFFSET 0.0 0.0 0.0
								}
							}
						}
					}
				}
				JOINT Shoulder_R
				{
					OFFSET 12.9945 -0.242716 -4.98039
					CHANNELS 6 Xposition Yposition Zposition Zrotation Xrotation Yrotation 
					JOINT UpperArm_R
					{
						OFFSET -5.34813 0.0 0.0
						CHANNELS 6 Xposition Yposition Zposition Zrotation Xrotation Yrotation 
						JOINT LowerArm_R
						{
							OFFSET -24.3289 0.000322201 0.0
							CHANNELS 6 Xposition Yposition Zposition Zrotation Xrotation Yrotation 
							JOINT Hand_R
							{
								OFFSET -22.2915 -0.000108084 0.0
								CHANNELS 6 Xposition Yposition Zposition Zrotation Xrotation Yrotation 
								End Site
								{
									OFFSET 0.0 0.0 0.0
								}
							}
						}
					}
				}
			}
		}
		JOINT UpperLeg_L
		{
			OFFSET -2.19248 -6.46944 0.0
			CHANNELS 6 Xposition Yposition Zposition Zrotation Xrotation Yrotation 
			JOINT LowerLeg_L
			{
				OFFSET 39.0811 0.0 -1.23785e-05
				CHANNELS 6 Xposition Yposition Zposition Zrotation Xrotation Yrotation 
				JOINT Foot_L
				{
					OFFSET 40.9854 0.0 -1.26872e-05
					CHANNELS 6 Xposition Yposition Zposition Zrotation Xrotation Yrotation 
					JOINT Toes_L
					{
						OFFSET 11.7543 0.0 0.0
						CHANNELS 6 Xposition Yposition Zposition Zrotation Xrotation Yrotation 
						End Site
						{
							OFFSET 0.0 0.0 0.0
						}
					}
				}
			}
		}
		JOINT UpperLeg_R
		{
			OFFSET -2.19251 6.46944 0.0
			CHANNELS 6 Xposition Yposition Zposition Zrotation Xrotation Yrotation 
			JOINT LowerLeg_R
			{
				OFFSET -39.0811 -0.00228153 -0.0401928
				CHANNELS 6 Xposition Yposition Zposition Zrotation Xrotation Yrotation 
				JOINT Foot_R
				{
					OFFSET -40.9854 0.0 0.0
					CHANNELS 6 Xposition Yposition Zposition Zrotation Xrotation Yrotation 
					JOINT Toes_R
					{
						OFFSET -11.7543 0.0 0.0
						CHANNELS 6 Xposition Yposition Zposition Zrotation Xrotation Yrotation 
						End Site
						{
							OFFSET 0.0 0.0 0.0
						}
					}
				}
			}
		}
	}
}
MOTION
Frames:	8
Frame Time:	0.0333333
0.000000 0.000000 0.000000 0.000000 0.000000 -0.000000 -2.758130 90.573500 -4.423240 88.783200 0.813412 11.620900 15.735700 0.000005 -0.000001 87.822300 75.464700 -87.850400 8.984550 -0.406207 -0.000000 21.285900 -1.080150 0.146536 16.377300 -0.000001 -0.000001 5.104550 -3.443820 2.212000 6.456720 -0.000001 -0.000000 -11.927300 -3.030520 2.125090 12.994200 -0.242716 4.980390 -91.112800 6.461630 -80.207200 5.348090 -0.000007 -0.000001 -55.621300 34.957100 -31.562600 24.328600 0.000019 0.000005 10.100600 22.544200 -24.920900 22.291600 -0.000001 0.000005 10.555300 5.251860 1.383400 12.994500 -0.242716 -4.980390 89.144600 10.555200 -85.340500 -5.348130 -0.000001 -0.000004 -58.212200 30.012500 -27.159300 -24.328900 0.000322 -0.000009 5.710870 9.584580 -30.994700 -22.291500 -0.000108 -0.000004 18.111600 5.378030 -2.236490 -2.192480 -6.469440 -0.000000 -172.269000 -12.175800 -3.743100 39.081100 -0.000007 -0.000012 -0.175077 0.266942 33.259700 40.985400 -0.000006 -0.000013 -1.072130 6.262320 -67.374400 11.754300 -0.000000 0.000003 -0.000157 -0.001508 -16.634800 -2.192510 6.469440 -0.000001 174.990000 25.895700 179.258000 -39.081100 -0.002282 -0.040193 -0.201066 0.323841 32.254600 -40.985400 0.000008 0.000006 5.124750 13.538900 -69.528500 -11.754300 -0.000006 -0.000006 -0.002885 -0.039296 -18.171200
0.000000 0.000000 0.000000 0.000000 0.000000 -0.000000 -2.762770 90.572900 -4.449510 88.791700 0.801441 11.562900 15.735700 0.000005 -0.000001 87.834700 75.485000 -87.873400 8.984550 -0.406207 -0.000000 21.245600 -1.073870 0.123652 16.377300 -0.000001 -0.000001 5.140770 -3.437320 2.182830 6.456720 -0.000001 -0.000000 -11.975800 -3.043460 2.142920 12.994200 -0.242716 4.980390 -91.102800 6.409460 -80.216700 5.348090 -0.000007 -0.000001 -55.696300 34.919200 -31.550300 24.328600 0.000019 0.000005 10.105500 22.536500 -24.938800 22.291600 -0.000001 0.000005 10.499900 5.251600 1.390300 12.994500 -0.242716 -4.980390 89.132800 10.537700 -85.268500 -5.348130 -0.000001 -0.000004 -58.392100 29.600800 -27.033000 -24.328900 0.000322 -0.000009 5.794080 9.381900 -31.906000 -22.291500 -0.000108 -0.000004 18.221100 5.380840 -2.324760 -2.192480 -6.469440 -0.000000 -172.283000 -12.215400 -3.824630 39.081100 -0.000007 -0.000012 -0.176627 0.269278 33.262200 40.985400 -0.000006 -0.000013 -1.069820 6.273010 -67.350900 11.754300 -0.000000 0.000003 -0.000157 -0.001507 -16.634800 -2.192510 6.469440 -0.000001 175.026000 25.866700 179.152000 -39.081100 -0.002282 -0.040193 -0.204205 0.328581 32.273100 -40.985400 0.000008 0.000006 5.131980 13.543200 -69.513000 -11.754300 -0.000006 -0.000006 -0.002682 -0.036955 -18.075900
0.000000 0.000000 0.000000 0.000000 0.000000 -0.000000 -2.756930 90.573400 -4.453680 88.802100 0.786951 11.595700 15.735700 0.000005 -0.000001 87.781100 75.475000 -87.832400 8.984550 -0.406207 -0.000000 21.264500 -1.102530 0.103879 16.377300 -0.000001 -0.000001 5.186030 -3.401110 2.169850 6.456720 -0.000001 -0.000000 -12.014600 -3.010320 2.137750 12.994200 -0.242716 4.980390 -91.100800 6.386550 -80.199100 5.348090 -0.000007 -0.000001 -55.649900 34.958600 -31.579200 24.328600 0.000019 0.000005 10.099100 22.499200 -24.959000 22.291600 -0.000001 0.000005 10.521100 5.251660 1.388770 12.994500 -0.242716 -4.980390 89.124400 10.532800 -85.220500 -5.348130 -0.000001 -0.000004 -58.489600 29.156400 -26.973500 -24.328900 0.000322 -0.000009 5.919650 9.188280 -33.002200 -22.291500 -0.000108 -0.000004 18.316000 5.384040 -2.425580 -2.192480 -6.469440 -0.000000 -172.286000 -12.195300 -3.779160 39.081100 -0.000007 -0.000012 -0.179919 0.274420 33.250500 40.985400 -0.000006 -0.000013 -1.079260 6.250960 -67.350900 11.754300 -0.000000 0.000003 -0.000170 -0.001616 -16.638800 -2.192510 6.469440 -0.000001 174.999000 25.885100 179.188000 -39.081100 -0.002282 -0.040193 -0.200245 0.322275 32.275800 -40.985400 0.000008 0.000006 5.140730 13.561600 -69.515900 -11.754300 -0.000006 -0.000006 -0.002851 -0.038906 -18.155300
0.000000 0.000000 0.000000 0.000000 0.000000 -0.000000 -2.752770 90.570900 -4.475520 88.786300 0.765263 11.583000 15.735700 0.000005 -0.000001 87.766700 75.479700 -87.821600 8.984550 -0.406207 -0.000000 21.254800 -1.109730 0.097956 16.377300 -0.000001 -0.000001 5.221090 -3.379920 2.165010 6.456720 -0.000001 -0.000000 -12.022200 -2.986730 2.131040 12.994200 -0.242716 4.980390 -91.098700 6.372740 -80.197200 5.348090 -0.000007 -0.000001 -55.701600 34.871000 -31.543900 24.328600 0.000019 0.000005 10.155200 22.544400 -25.041500 22.291600 -0.000001 0.000005 10.367300 5.247650 1.494870 12.994500 -0.242716 -4.980390 89.115900 10.499300 -85.159300 -5.348130 -0.000001 -0.000004 -58.596600 28.640500 -26.923100 -24.328900 0.000322 -0.000009 6.163830 9.081170 -34.386200 -22.291500 -0.000108 -0.000004 18.588800 5.383020 -2.393530 -2.192480 -6.469440 -0.000000 -172.279000 -12.235600 -3.819580 39.081100 -0.000007 -0.000012 -0.175648 0.267611 33.279400 40.985400 -0.000006 -0.000013 -1.068490 6.244380 -67.350400 11.754300 -0.000000 0.000003 -0.000164 -0.001566 -16.636900 -2.192510 6.469440 -0.000001 175.024000 25.881000 179.149000 -39.081100 -0.002282 -0.040193 -0.202025 0.324969 32.285700 -40.985400 0.000008 0.000006 5.149600 13.591600 -69.504100 -11.754300 -0.000006 -0.000006 -0.002770 -0.037966 -18.117100
0.000000 0.000000 0.000000 0.000000 0.000000 -0.000000 -2.744340 90.570700 -4.491720 88.780200 0.751334 11.574200 15.735700 0.000005 -0.000001 87.702600 75.478000 -87.768500 8.984550 -0.406207 -0.000000 21.256900 -1.142790 0.082139 16.377300 -0.000001 -0.000001 5.280400 -3.353300 2.167250 6.456720 -0.000001 -0.000000 -12.106900 -2.965210 2.144620 12.994200 -0.242716 4.980390 -91.097200 6.338860 -80.159200 5.348090 -0.000007 -0.000001 -55.668600 34.894900 -31.596600 24.328600 0.000019 0.000005 10.167300 22.600500 -25.016400 22.291600 -0.000001 0.000005 10.399800 5.248580 1.470290 12.994500 -0.242716 -4.980390 89.112600 10.444800 -85.116400 -5.348130 -0.000001 -0.000004 -58.674500 28.039600 -26.900800 -24.328900 0.000322 -0.000009 6.616720 9.171800 -36.049900 -22.291500 -0.000108 -0.000004 18.873900 5.384830 -2.450950 -2.192480 -6.469440 -0.000000 -172.284000 -12.206600 -3.847380 39.081100 -0.000007 -0.000012 -0.177672 0.270623 33.286400 40.985400 -0.000006 -0.000013 -1.071110 6.226010 -67.341700 11.754300 -0.000000 0.000003 -0.000162 -0.001554 -16.636500 -2.192510 6.469440 -0.000001 175.033000 25.887000 179.122000 -39.081100 -0.002282 -0.040193 -0.203532 0.327315 32.288800 -40.985400 0.000008 0.000006 5.149970 13.601100 -69.489500 -11.754300 -0.000006 -0.000006 -0.002803 -0.038349 -18.132600
0.000000 0.000000 0.000000 0.000000 0.000000 -0.000000 -2.737070 90.566400 -4.507610 88.788200 0.716636 11.598500 15.735700 0.000005 -0.000001 87.734900 75.463500 -87.816200 8.984550 -0.406207 -0.000000 21.286400 -1.129690 0.049142 16.377300 -0.000001 -0.000001 5.273400 -3.353570 2.180870 6.456720 -0.000001 -0.000000 -12.137800 -2.938310 2.136450 12.994200 -0.242716 4.980390 -91.086300 6.291820 -80.183900 5.348090 -0.000007 -0.000001 -55.653800 34.896800 -31.653900 24.328600 0.000019 0.000005 10.067500 22.452400 -24.932200 22.291600 -0.000001 0.000005 10.591900 5.251800 1.385150 12.994500 -0.242716 -4.980390 89.099600 10.378100 -85.013700 -5.348130 -0.000001 -0.000004 -58.645200 27.478500 -26.965200 -24.328900 0.000322 -0.000009 6.990940 9.053740 -37.932000 -22.291500 -0.000108 -0.000004 19.291800 5.390280 -2.624040 -2.192480 -6.469440 -0.000000 -172.290000 -12.257000 -3.838060 39.081100 -0.000007 -0.000012 -0.174152 0.265031 33.309200 40.985400 -0.000006 -0.000013 -1.055840 6.230290 -67.345700 11.754300 -0.000000 0.000003 -0.000165 -0.001571 -16.637100 -2.192510 6.469440 -0.000001 175.015000 25.875100 179.117000 -39.081100 -0.002282 -0.040193 -0.201423 0.323595 32.319400 -40.985400 0.000008 0.000006 5.156720 13.624900 -69.490900 -11.754300 -0.000006 -0.000006 -0.002648 -0.036556 -18.059700
0.000000 0.000000 0.000000 0.000000 0.000000 -0.000000 -2.726750 90.569500 -4.524820 88.773800 0.694935 11.618400 15.735700 0.000005 -0.000001 87.720200 75.451300 -87.805700 8.984550 -0.406207 -0.000000 21.310500 -1.138370 0.042466 16.377300 -0.000001 -0.000001 5.280120 -3.330540 2.169600 6.456720 -0.000001 -0.000000 -12.214000 -2.930830 2.120050 12.994200 -0.242716 4.980390 -91.087600 6.300260 -80.185100 5.348090 -0.000007 -0.000001 -55.648700 34.833500 -31.649500 24.328600 0.000019 0.000005 10.087700 22.478700 -24.952900 22.291600 -0.000001 0.000005 10.543300 5.251930 1.381670 12.994500 -0.242716 -4.980390 89.094900 10.288700 -84.945000 -5.348130 -0.000001 -0.000004 -58.684800 26.765000 -26.973100 -24.328900 0.000322 -0.000009 7.609500 9.104400 -40.178400 -22.291500 -0.000108 -0.000004 19.674100 5.394300 -2.753070 -2.192480 -6.469440 -0.000000 -172.275000 -12.281500 -3.823470 39.081100 -0.000007 -0.000012 -0.171958 0.261726 33.305800 40.985400 -0.000006 -0.000013 -1.045980 6.235400 -67.335800 11.754300 -0.000000 0.000003 -0.000169 -0.001608 -16.638500 -2.192510 6.469440 -0.000001 175.016000 25.883600 179.134000 -39.081100 -0.002282 -0.040193 -0.204858 0.329282 32.299200 -40.985400 0.000008 0.000006 5.160720 13.655000 -69.466000 -11.754300 -0.000006 -0.000006 -0.002799 -0.038312 -18.131100
0.000000 0.000000 0.000000 0.000000 0.000000 -0.000000 -2.725660 90.580100 -4.548070 88.775200 0.685052 11.643800 15.735700 0.000005 -0.000001 87.678100 75.446500 -87.775800 8.984550 -0.406207 -0.000000 21.319100 -1.160960 0.022447 16.377300 -0.000001 -0.000001 5.315270 -3.296610 2.173770 6.456720 -0.000001 -0.000000 -12.271100 -2.885000 2.110570 12.994200 -0.242716 4.980390 -91.083400 6.269560 -80.176100 5.348090 -0.000007 -0.000001 -55.694000 34.806700 -31.620400 24.328600 0.000019 0.000005 10.117400 22.580700 -24.924600 22.291600 -0.000001 0.000005 10.593000 5.251660 1.388700 12.994500 -0.242716 -4.980390 89.094100 10.210900 -84.902600 -5.348130 -0.000001 -0.000004 -58.709800 26.000500 -26.994900 -24.328900 0.000322 -0.000009 8.219830 9.041960 -42.592100 -22.291500 -0.000108 -0.000004 20.138100 5.394720 -2.766730 -2.192480 -6.469440 -0.000000 -172.279000 -12.284100 -3.786310 39.081100 -0.000007 -0.000012 -0.170519 0.260032 33.255600 40.985400 -0.000006 -0.000013 -1.043800 6.228680 -67.297600 11.754300 -0.000000 0.000003 -0.000156 -0.001504 -16.634700 -2.192510 6.469440 -0.000001 174.996000 25.917700 179.181000 -39.081100 -0.002282 -0.040193 -0.197848 0.318823 32.248100 -40.985400 0.000008 0.000006 5.166980 13.704500 -69.433500 -11.754300 -0.000006 -0.000006 -0.002854 -0.038941 -18.156700
